# xmcd
#
# Track frame offsets: 
#        150
#        11974
#        24884
#        38731
#        53392
#        67389
#        79577
#        92005
#        106393
#        119850
#        130119
#        145015
#        158510
#        170220
#        184372
#        198784
#        209759
#        223109
#        238088
#        251531
#        268974
#        283100
#        295517
#        314188
#
# Disc length: 4375 seconds
#
# Revision: 0
# Processed by: cddbd v1.5.2PL0 Copyright (c) Steve Scherf et al.
# Submitted via: ExactAudioCopy v0.95b3
#
DISCID=74111518
DTITLE=Teddy Wilson  - 1952-1953  Flac
DYEAR=1900
DGENRE=
TTITLE0=You're Mine You
TTITLE1=I Got Rhythm
TTITLE2=Someone To Watch Over Me
TTITLE3=Indiana
TTITLE4=Time On My Hands
TTITLE5=Sweet Georgia Brown
TTITLE6=I Can't Get Started
TTITLE7=Takin' A Chance On Love
TTITLE8=The One I Love
TTITLE9=Darn That Dream
TTITLE10=Tea For Two
TTITLE11=Oh. Lady Be Good
TTITLE12=Emaline
TTITLE13=Tenderly
TTITLE14=Everything Happens To Me
TTITLE15=Liza
TTITLE16=Nice Work If You Can Get It
TTITLE17=Airmail Special
TTITLE18=Night And Day
TTITLE19=Cheek To Cheek
TTITLE20=East Of The Sun
TTITLE21=Autumn In New York
TTITLE22=Isn't It Romantic
TTITLE23=You Go To My Head
EXTD=
EXTT0=
EXTT1=
EXTT2=
EXTT3=
EXTT4=
EXTT5=
EXTT6=
EXTT7=
EXTT8=
EXTT9=
EXTT10=
EXTT11=
EXTT12=
EXTT13=
EXTT14=
EXTT15=
EXTT16=
EXTT17=
EXTT18=
EXTT19=
EXTT20=
EXTT21=
EXTT22=
EXTT23=
PLAYORDER=
